<svg width="232" height="47" viewBox="0 0 232 47" fill="none" xmlns="http://www.w3.org/2000/svg">
<path d="M78.9546 13.7385L78.9546 34.1929C78.954 34.7955 78.7143 35.3732 78.2882 35.7993C77.8622 36.2253 77.2844 36.465 76.6819 36.4656L72.1365 36.4656C71.5339 36.465 70.9562 36.2253 70.5301 35.7993C70.104 35.3732 69.8644 34.7955 69.8638 34.1929L69.8638 13.7385C69.8644 13.136 70.104 12.5583 70.5301 12.1322C70.9562 11.7061 71.5339 11.4664 72.1365 11.4658L76.6819 11.4658C77.2844 11.4664 77.8622 11.7061 78.2882 12.1322C78.7143 12.5583 78.954 13.136 78.9546 13.7385ZM72.1365 34.1929L76.6819 34.1929L76.6819 13.7385L72.1365 13.7385L72.1365 34.1929ZM72.1365 13.7385L72.1365 34.1929C72.1359 34.7955 71.8962 35.3731 71.4701 35.7992C71.0441 36.2253 70.4663 36.4649 69.8638 36.4655L65.3184 36.4655C64.7158 36.4649 64.1381 36.2253 63.712 35.7992C63.2859 35.3731 63.0463 34.7954 63.0456 34.1928L63.0456 13.7385C63.0462 13.1359 63.2859 12.5582 63.712 12.1321C64.1381 11.7061 64.7158 11.4664 65.3184 11.4658L69.8638 11.4658C70.4663 11.4664 71.0441 11.7061 71.4701 12.1321C71.8962 12.5582 72.1359 13.136 72.1365 13.7385ZM65.3184 34.1928L69.8638 34.1929L69.8638 13.7385L65.3184 13.7385L65.3184 34.1928ZM65.3184 13.7385L65.3184 34.1928C65.3178 34.7954 65.0781 35.3731 64.652 35.7992C64.2259 36.2253 63.6482 36.4649 63.0456 36.4656L58.5002 36.4656C57.8977 36.4649 57.3199 36.2253 56.8939 35.7992C56.4678 35.3731 56.2281 34.7954 56.2275 34.1928L56.2275 13.7385C56.2281 13.136 56.4678 12.5582 56.8939 12.1321C57.3199 11.7061 57.8977 11.4664 58.5002 11.4658L63.0456 11.4658C63.6482 11.4664 64.2259 11.7061 64.652 12.1321C65.0781 12.5582 65.3177 13.1359 65.3184 13.7385ZM58.5002 34.1928L63.0456 34.1928L63.0456 13.7385L58.5002 13.7385L58.5002 34.1928Z" fill="#CDCDCD"/>
<path d="M85.7727 13.7388L85.7727 34.1931C85.7721 34.7957 85.5324 35.3734 85.1064 35.7995C84.6803 36.2256 84.1026 36.4652 83.5 36.4658L78.9546 36.4658C78.352 36.4652 77.7743 36.2256 77.3482 35.7995C76.9221 35.3734 76.6825 34.7955 76.6819 34.1929L76.6819 13.7385C76.6825 13.136 76.9221 12.5585 77.3482 12.1324C77.7743 11.7063 78.352 11.4667 78.9546 11.4661L83.5 11.4661C84.1026 11.4667 84.6803 11.7063 85.1064 12.1324C85.5324 12.5585 85.7721 13.1362 85.7727 13.7388ZM78.9546 34.1929L83.5 34.1931L83.5 13.7388L78.9546 13.7385L78.9546 34.1929Z" fill="#CDCDCD"/>
<path d="M95.4091 29.4658V17.8295H99.4773C100.288 17.8295 100.956 17.9696 101.483 18.2499C102.009 18.5264 102.402 18.8995 102.659 19.3692C102.917 19.8351 103.045 20.3522 103.045 20.9204C103.045 21.4204 102.956 21.8332 102.778 22.159C102.604 22.4848 102.373 22.7423 102.085 22.9317C101.801 23.1211 101.492 23.2613 101.159 23.3522V23.4658C101.515 23.4885 101.873 23.6135 102.233 23.8408C102.593 24.0681 102.894 24.3939 103.136 24.8181C103.379 25.2423 103.5 25.7613 103.5 26.3749C103.5 26.9582 103.367 27.4829 103.102 27.9488C102.837 28.4147 102.419 28.784 101.847 29.0567C101.275 29.3295 100.53 29.4658 99.6136 29.4658H95.4091ZM96.8182 28.2158H99.6136C100.534 28.2158 101.188 28.0378 101.574 27.6817C101.964 27.3219 102.159 26.8863 102.159 26.3749C102.159 25.981 102.059 25.6173 101.858 25.284C101.657 24.9469 101.371 24.6779 101 24.4772C100.629 24.2726 100.189 24.1704 99.6818 24.1704H96.8182V28.2158ZM96.8182 22.9431H99.4318C99.8561 22.9431 100.239 22.8598 100.58 22.6931C100.924 22.5264 101.197 22.2916 101.398 21.9885C101.602 21.6855 101.705 21.3295 101.705 20.9204C101.705 20.409 101.527 19.9753 101.17 19.6192C100.814 19.2594 100.25 19.0795 99.4773 19.0795H96.8182V22.9431ZM109.179 29.6476C108.391 29.6476 107.7 29.4601 107.105 29.0851C106.514 28.7101 106.052 28.1855 105.719 27.5113C105.389 26.837 105.224 26.0492 105.224 25.1476C105.224 24.2385 105.389 23.445 105.719 22.767C106.052 22.0889 106.514 21.5624 107.105 21.1874C107.7 20.8124 108.391 20.6249 109.179 20.6249C109.967 20.6249 110.656 20.8124 111.247 21.1874C111.842 21.5624 112.304 22.0889 112.634 22.767C112.967 23.445 113.134 24.2385 113.134 25.1476C113.134 26.0492 112.967 26.837 112.634 27.5113C112.304 28.1855 111.842 28.7101 111.247 29.0851C110.656 29.4601 109.967 29.6476 109.179 29.6476ZM109.179 28.4431C109.777 28.4431 110.27 28.2897 110.656 27.9829C111.043 27.676 111.329 27.2726 111.514 26.7726C111.7 26.2726 111.793 25.731 111.793 25.1476C111.793 24.5643 111.7 24.0207 111.514 23.517C111.329 23.0132 111.043 22.606 110.656 22.2954C110.27 21.9848 109.777 21.8295 109.179 21.8295C108.58 21.8295 108.088 21.9848 107.702 22.2954C107.315 22.606 107.029 23.0132 106.844 23.517C106.658 24.0207 106.565 24.5643 106.565 25.1476C106.565 25.731 106.658 26.2726 106.844 26.7726C107.029 27.2726 107.315 27.676 107.702 27.9829C108.088 28.2897 108.58 28.4431 109.179 28.4431ZM117.749 29.6704C117.196 29.6704 116.694 29.5662 116.243 29.3579C115.792 29.1457 115.434 28.8408 115.169 28.4431C114.904 28.0416 114.771 27.5567 114.771 26.9885C114.771 26.4885 114.87 26.0832 115.067 25.7726C115.264 25.4582 115.527 25.212 115.857 25.034C116.186 24.856 116.55 24.7234 116.947 24.6363C117.349 24.5454 117.752 24.4734 118.158 24.4204C118.688 24.3522 119.118 24.301 119.447 24.267C119.781 24.2291 120.023 24.1666 120.175 24.0795C120.33 23.9923 120.408 23.8408 120.408 23.6249V23.5795C120.408 23.0189 120.254 22.5832 119.947 22.2726C119.644 21.962 119.184 21.8067 118.567 21.8067C117.927 21.8067 117.425 21.9469 117.061 22.2272C116.697 22.5075 116.442 22.8067 116.294 23.1249L115.021 22.6704C115.249 22.1401 115.552 21.7272 115.93 21.4317C116.313 21.1325 116.73 20.9242 117.18 20.8067C117.635 20.6855 118.082 20.6249 118.521 20.6249C118.802 20.6249 119.124 20.659 119.487 20.7272C119.855 20.7916 120.209 20.926 120.55 21.1306C120.894 21.3351 121.18 21.6439 121.408 22.0567C121.635 22.4696 121.749 23.0226 121.749 23.7158V29.4658H120.408V28.284H120.339C120.249 28.4734 120.097 28.676 119.885 28.892C119.673 29.1079 119.391 29.2916 119.038 29.4431C118.686 29.5946 118.256 29.6704 117.749 29.6704ZM117.953 28.4658C118.483 28.4658 118.93 28.3617 119.294 28.1533C119.661 27.945 119.938 27.676 120.124 27.3465C120.313 27.017 120.408 26.6704 120.408 26.3067V25.0795C120.351 25.1476 120.226 25.2101 120.033 25.267C119.843 25.32 119.624 25.3673 119.374 25.409C119.127 25.4469 118.887 25.481 118.652 25.5113C118.421 25.5378 118.233 25.5605 118.089 25.5795C117.741 25.6249 117.415 25.6988 117.112 25.801C116.813 25.8995 116.571 26.0492 116.385 26.2499C116.203 26.4469 116.112 26.7158 116.112 27.0567C116.112 27.5226 116.285 27.8749 116.629 28.1135C116.978 28.3484 117.419 28.4658 117.953 28.4658ZM124.196 29.4658V20.7385H125.491V22.0567H125.582C125.741 21.6249 126.029 21.2745 126.446 21.0056C126.863 20.7367 127.332 20.6022 127.855 20.6022C127.954 20.6022 128.077 20.6041 128.224 20.6079C128.372 20.6117 128.484 20.6173 128.56 20.6249V21.9885C128.514 21.9772 128.41 21.9601 128.247 21.9374C128.088 21.9109 127.92 21.8976 127.741 21.8976C127.317 21.8976 126.938 21.9867 126.605 22.1647C126.276 22.3389 126.014 22.5814 125.821 22.892C125.632 23.1988 125.537 23.5492 125.537 23.9431V29.4658H124.196ZM133.179 29.6476C132.452 29.6476 131.81 29.4639 131.253 29.0965C130.696 28.7253 130.26 28.2026 129.946 27.5283C129.632 26.8503 129.474 26.0492 129.474 25.1249C129.474 24.2082 129.632 23.4128 129.946 22.7385C130.26 22.0643 130.698 21.5435 131.259 21.176C131.819 20.8086 132.467 20.6249 133.202 20.6249C133.77 20.6249 134.219 20.7196 134.548 20.909C134.882 21.0946 135.135 21.3067 135.31 21.5454C135.488 21.7802 135.626 21.9734 135.724 22.1249H135.838V17.8295H137.179V29.4658H135.884V28.1249H135.724C135.626 28.284 135.486 28.4848 135.304 28.7272C135.122 28.9658 134.863 29.1798 134.526 29.3692C134.188 29.5548 133.74 29.6476 133.179 29.6476ZM133.361 28.4431C133.899 28.4431 134.353 28.3029 134.724 28.0226C135.096 27.7385 135.378 27.3465 135.571 26.8465C135.764 26.3427 135.861 25.7613 135.861 25.1022C135.861 24.4507 135.766 23.8806 135.577 23.392C135.387 22.8995 135.107 22.517 134.736 22.2442C134.365 21.9677 133.906 21.8295 133.361 21.8295C132.793 21.8295 132.319 21.9753 131.94 22.267C131.565 22.5548 131.283 22.9469 131.094 23.4431C130.908 23.9355 130.815 24.4885 130.815 25.1022C130.815 25.7234 130.91 26.2878 131.099 26.7954C131.293 27.2992 131.577 27.7007 131.952 27.9999C132.33 28.2954 132.8 28.4431 133.361 28.4431Z" fill="#CDCDCD"/>
</svg>
