<svg width="232" height="47" viewBox="0 0 232 47" fill="none" xmlns="http://www.w3.org/2000/svg">
<mask id="mask0_69323_5867" style="mask-type:alpha" maskUnits="userSpaceOnUse" x="56" y="8" width="30" height="31">
<rect x="56" y="8.96582" width="30" height="30" fill="#D9D9D9"/>
</mask>
<g mask="url(#mask0_69323_5867)">
<path d="M71 31.4658C69.8333 31.4658 68.7188 31.6481 67.6563 32.0127C66.5938 32.3773 65.625 32.9242 64.75 33.6533V33.9658H77.25V33.6533C76.375 32.9242 75.4062 32.3773 74.3438 32.0127C73.2812 31.6481 72.1667 31.4658 71 31.4658ZM62.25 32.5283C63.375 31.4242 64.6823 30.5544 66.1719 29.9189C67.6615 29.2835 69.2708 28.9658 71 28.9658C72.7292 28.9658 74.3385 29.2835 75.8281 29.9189C77.3177 30.5544 78.625 31.4242 79.75 32.5283V16.4658H62.25V32.5283ZM71 26.4658C69.7917 26.4658 68.7604 26.0387 67.9062 25.1846C67.0521 24.3304 66.625 23.2992 66.625 22.0908C66.625 20.8825 67.0521 19.8512 67.9062 18.9971C68.7604 18.1429 69.7917 17.7158 71 17.7158C72.2083 17.7158 73.2396 18.1429 74.0938 18.9971C74.9479 19.8512 75.375 20.8825 75.375 22.0908C75.375 23.2992 74.9479 24.3304 74.0938 25.1846C73.2396 26.0387 72.2083 26.4658 71 26.4658ZM71 23.9658C71.5208 23.9658 71.9635 23.7835 72.3281 23.4189C72.6927 23.0544 72.875 22.6117 72.875 22.0908C72.875 21.57 72.6927 21.1273 72.3281 20.7627C71.9635 20.3981 71.5208 20.2158 71 20.2158C70.4792 20.2158 70.0365 20.3981 69.6719 20.7627C69.3073 21.1273 69.125 21.57 69.125 22.0908C69.125 22.6117 69.3073 23.0544 69.6719 23.4189C70.0365 23.7835 70.4792 23.9658 71 23.9658ZM62.25 36.4658C61.5625 36.4658 60.974 36.221 60.4844 35.7314C59.9948 35.2419 59.75 34.6533 59.75 33.9658V16.4658C59.75 15.7783 59.9948 15.1898 60.4844 14.7002C60.974 14.2106 61.5625 13.9658 62.25 13.9658H63.5V11.4658H66V13.9658H76V11.4658H78.5V13.9658H79.75C80.4375 13.9658 81.026 14.2106 81.5156 14.7002C82.0052 15.1898 82.25 15.7783 82.25 16.4658V33.9658C82.25 34.6533 82.0052 35.2419 81.5156 35.7314C81.026 36.221 80.4375 36.4658 79.75 36.4658H62.25Z" fill="#CDCDCD"/>
</g>
<path d="M104.773 21.4658H103.364C103.28 21.0605 103.134 20.7045 102.926 20.3976C102.722 20.0908 102.472 19.8332 102.176 19.6249C101.884 19.4128 101.561 19.2537 101.205 19.1476C100.848 19.0416 100.477 18.9885 100.091 18.9885C99.3864 18.9885 98.7481 19.1666 98.1761 19.5226C97.608 19.8787 97.1553 20.4033 96.8182 21.0965C96.4848 21.7897 96.3182 22.6401 96.3182 23.6476C96.3182 24.6552 96.4848 25.5056 96.8182 26.1988C97.1553 26.892 97.608 27.4166 98.1761 27.7726C98.7481 28.1287 99.3864 28.3067 100.091 28.3067C100.477 28.3067 100.848 28.2537 101.205 28.1476C101.561 28.0416 101.884 27.8844 102.176 27.676C102.472 27.4639 102.722 27.2045 102.926 26.8976C103.134 26.587 103.28 26.231 103.364 25.8295H104.773C104.667 26.4242 104.473 26.9564 104.193 27.426C103.913 27.8957 103.564 28.2954 103.148 28.6249C102.731 28.9507 102.263 29.1988 101.744 29.3692C101.229 29.5397 100.678 29.6249 100.091 29.6249C99.0985 29.6249 98.2159 29.3825 97.4432 28.8976C96.6705 28.4128 96.0625 27.7234 95.6193 26.8295C95.1761 25.9355 94.9545 24.8749 94.9545 23.6476C94.9545 22.4204 95.1761 21.3598 95.6193 20.4658C96.0625 19.5719 96.6705 18.8825 97.4432 18.3976C98.2159 17.9128 99.0985 17.6704 100.091 17.6704C100.678 17.6704 101.229 17.7556 101.744 17.926C102.263 18.0965 102.731 18.3465 103.148 18.676C103.564 19.0018 103.913 19.3995 104.193 19.8692C104.473 20.3351 104.667 20.8673 104.773 21.4658ZM110.413 29.6476C109.625 29.6476 108.934 29.4601 108.339 29.0851C107.749 28.7101 107.286 28.1855 106.953 27.5113C106.624 26.837 106.459 26.0492 106.459 25.1476C106.459 24.2385 106.624 23.445 106.953 22.767C107.286 22.0889 107.749 21.5624 108.339 21.1874C108.934 20.8124 109.625 20.6249 110.413 20.6249C111.201 20.6249 111.891 20.8124 112.482 21.1874C113.076 21.5624 113.538 22.0889 113.868 22.767C114.201 23.445 114.368 24.2385 114.368 25.1476C114.368 26.0492 114.201 26.837 113.868 27.5113C113.538 28.1855 113.076 28.7101 112.482 29.0851C111.891 29.4601 111.201 29.6476 110.413 29.6476ZM110.413 28.4431C111.012 28.4431 111.504 28.2897 111.891 27.9829C112.277 27.676 112.563 27.2726 112.749 26.7726C112.934 26.2726 113.027 25.731 113.027 25.1476C113.027 24.5643 112.934 24.0207 112.749 23.517C112.563 23.0132 112.277 22.606 111.891 22.2954C111.504 21.9848 111.012 21.8295 110.413 21.8295C109.815 21.8295 109.322 21.9848 108.936 22.2954C108.55 22.606 108.264 23.0132 108.078 23.517C107.893 24.0207 107.8 24.5643 107.8 25.1476C107.8 25.731 107.893 26.2726 108.078 26.7726C108.264 27.2726 108.55 27.676 108.936 27.9829C109.322 28.2897 109.815 28.4431 110.413 28.4431ZM117.756 24.2158V29.4658H116.415V20.7385H117.71V22.1022H117.824C118.028 21.659 118.339 21.3029 118.756 21.034C119.172 20.7613 119.71 20.6249 120.369 20.6249C120.96 20.6249 121.477 20.7461 121.92 20.9885C122.364 21.2272 122.708 21.5908 122.955 22.0795C123.201 22.5643 123.324 23.1779 123.324 23.9204V29.4658H121.983V24.0113C121.983 23.3257 121.805 22.7916 121.449 22.409C121.093 22.0226 120.604 21.8295 119.983 21.8295C119.555 21.8295 119.172 21.9223 118.835 22.1079C118.502 22.2935 118.239 22.5643 118.045 22.9204C117.852 23.2764 117.756 23.7082 117.756 24.2158ZM129.57 20.7385V21.8749H125.047V20.7385H129.57ZM126.365 18.6476H127.706V26.9658C127.706 27.3446 127.761 27.6287 127.871 27.8181C127.984 28.0037 128.128 28.1287 128.303 28.1931C128.481 28.2537 128.668 28.284 128.865 28.284C129.013 28.284 129.134 28.2764 129.229 28.2613C129.323 28.2423 129.399 28.2272 129.456 28.2158L129.729 29.4204C129.638 29.4545 129.511 29.4885 129.348 29.5226C129.185 29.5605 128.979 29.5795 128.729 29.5795C128.35 29.5795 127.979 29.498 127.615 29.3351C127.255 29.1723 126.956 28.9242 126.717 28.5908C126.482 28.2575 126.365 27.837 126.365 27.3295V18.6476ZM134.155 29.6704C133.602 29.6704 133.1 29.5662 132.649 29.3579C132.198 29.1457 131.84 28.8408 131.575 28.4431C131.31 28.0416 131.178 27.5567 131.178 26.9885C131.178 26.4885 131.276 26.0832 131.473 25.7726C131.67 25.4582 131.933 25.212 132.263 25.034C132.592 24.856 132.956 24.7234 133.354 24.6363C133.755 24.5454 134.159 24.4734 134.564 24.4204C135.094 24.3522 135.524 24.301 135.854 24.267C136.187 24.2291 136.429 24.1666 136.581 24.0795C136.736 23.9923 136.814 23.8408 136.814 23.6249V23.5795C136.814 23.0189 136.661 22.5832 136.354 22.2726C136.051 21.962 135.59 21.8067 134.973 21.8067C134.333 21.8067 133.831 21.9469 133.467 22.2272C133.104 22.5075 132.848 22.8067 132.7 23.1249L131.428 22.6704C131.655 22.1401 131.958 21.7272 132.337 21.4317C132.719 21.1325 133.136 20.9242 133.587 20.8067C134.041 20.6855 134.488 20.6249 134.928 20.6249C135.208 20.6249 135.53 20.659 135.893 20.7272C136.261 20.7916 136.615 20.926 136.956 21.1306C137.301 21.3351 137.587 21.6439 137.814 22.0567C138.041 22.4696 138.155 23.0226 138.155 23.7158V29.4658H136.814V28.284H136.746C136.655 28.4734 136.503 28.676 136.291 28.892C136.079 29.1079 135.797 29.2916 135.445 29.4431C135.092 29.5946 134.662 29.6704 134.155 29.6704ZM134.359 28.4658C134.89 28.4658 135.337 28.3617 135.7 28.1533C136.068 27.945 136.344 27.676 136.53 27.3465C136.719 27.017 136.814 26.6704 136.814 26.3067V25.0795C136.757 25.1476 136.632 25.2101 136.439 25.267C136.25 25.32 136.03 25.3673 135.78 25.409C135.534 25.4469 135.293 25.481 135.058 25.5113C134.827 25.5378 134.64 25.5605 134.496 25.5795C134.147 25.6249 133.821 25.6988 133.518 25.801C133.219 25.8995 132.977 26.0492 132.791 26.2499C132.609 26.4469 132.518 26.7158 132.518 27.0567C132.518 27.5226 132.691 27.8749 133.036 28.1135C133.384 28.3484 133.825 28.4658 134.359 28.4658ZM144.148 29.6476C143.33 29.6476 142.625 29.4545 142.034 29.0681C141.443 28.6817 140.989 28.1495 140.67 27.4715C140.352 26.7935 140.193 26.0189 140.193 25.1476C140.193 24.2613 140.356 23.4791 140.682 22.801C141.011 22.1192 141.47 21.587 142.057 21.2045C142.648 20.8181 143.337 20.6249 144.125 20.6249C144.739 20.6249 145.292 20.7385 145.784 20.9658C146.277 21.1931 146.68 21.5113 146.994 21.9204C147.309 22.3295 147.504 22.8067 147.58 23.3522H146.239C146.136 22.9545 145.909 22.6022 145.557 22.2954C145.208 21.9848 144.739 21.8295 144.148 21.8295C143.625 21.8295 143.167 21.9658 142.773 22.2385C142.383 22.5075 142.078 22.8882 141.858 23.3806C141.642 23.8692 141.534 24.4431 141.534 25.1022C141.534 25.7764 141.64 26.3635 141.852 26.8635C142.068 27.3635 142.371 27.7518 142.761 28.0283C143.155 28.3048 143.617 28.4431 144.148 28.4431C144.496 28.4431 144.812 28.3825 145.097 28.2613C145.381 28.1401 145.621 27.9658 145.818 27.7385C146.015 27.5113 146.155 27.2385 146.239 26.9204H147.58C147.504 27.4355 147.316 27.8995 147.017 28.3124C146.722 28.7215 146.33 29.0473 145.841 29.2897C145.356 29.5283 144.792 29.6476 144.148 29.6476ZM153.335 20.7385V21.8749H148.812V20.7385H153.335ZM150.131 18.6476H151.472V26.9658C151.472 27.3446 151.527 27.6287 151.636 27.8181C151.75 28.0037 151.894 28.1287 152.068 28.1931C152.246 28.2537 152.434 28.284 152.631 28.284C152.778 28.284 152.9 28.2764 152.994 28.2613C153.089 28.2423 153.165 28.2272 153.222 28.2158L153.494 29.4204C153.403 29.4545 153.277 29.4885 153.114 29.5226C152.951 29.5605 152.744 29.5795 152.494 29.5795C152.116 29.5795 151.744 29.498 151.381 29.3351C151.021 29.1723 150.722 28.9242 150.483 28.5908C150.248 28.2575 150.131 27.837 150.131 27.3295V18.6476ZM161.378 22.6931L160.173 23.034C160.098 22.8332 159.986 22.6382 159.838 22.4488C159.694 22.2556 159.497 22.0965 159.247 21.9715C158.997 21.8465 158.677 21.784 158.287 21.784C157.753 21.784 157.308 21.9071 156.952 22.1533C156.599 22.3957 156.423 22.7045 156.423 23.0795C156.423 23.4128 156.545 23.676 156.787 23.8692C157.029 24.0624 157.408 24.2234 157.923 24.3522L159.219 24.6704C159.999 24.8598 160.58 25.1495 160.963 25.5397C161.346 25.926 161.537 26.4242 161.537 27.034C161.537 27.534 161.393 27.981 161.105 28.3749C160.821 28.7689 160.423 29.0795 159.912 29.3067C159.401 29.534 158.806 29.6476 158.128 29.6476C157.238 29.6476 156.501 29.4545 155.918 29.0681C155.334 28.6817 154.965 28.1173 154.81 27.3749L156.082 27.0567C156.204 27.5264 156.433 27.8787 156.77 28.1135C157.111 28.3484 157.556 28.4658 158.105 28.4658C158.73 28.4658 159.226 28.3332 159.594 28.0681C159.965 27.7992 160.151 27.4772 160.151 27.1022C160.151 26.7992 160.045 26.5454 159.832 26.3408C159.62 26.1325 159.295 25.9772 158.855 25.8749L157.401 25.534C156.601 25.3446 156.014 25.051 155.639 24.6533C155.268 24.2518 155.082 23.7499 155.082 23.1476C155.082 22.6552 155.221 22.2196 155.497 21.8408C155.777 21.462 156.158 21.1647 156.639 20.9488C157.124 20.7329 157.673 20.6249 158.287 20.6249C159.151 20.6249 159.829 20.8143 160.321 21.1931C160.817 21.5719 161.17 22.0719 161.378 22.6931Z" fill="#CDCDCD"/>
</svg>
